<svg id="call-answer" xmlns="http://www.w3.org/2000/svg" width="19.253" height="19.209" viewBox="0 0 19.253 19.209">
  <g id="Group_460" data-name="Group 460" transform="translate(0 0)">
    <g id="Group_459" data-name="Group 459" transform="translate(0 0)">
      <path id="Path_793" data-name="Path 793" d="M18.821,15.587l-2.973-2.974a1.55,1.55,0,0,0-2.186.041l-1.5,1.5-.3-.164a14.907,14.907,0,0,1-3.6-2.606A14.99,14.99,0,0,1,5.654,7.772c-.055-.1-.109-.2-.161-.289l1.005-1,.494-.495A1.549,1.549,0,0,0,7.032,3.8L4.059.825A1.549,1.549,0,0,0,1.873.866l-.838.843.023.023A4.846,4.846,0,0,0,.368,2.95,5.05,5.05,0,0,0,.06,4.185C-.332,7.44,1.155,10.414,5.192,14.451c5.58,5.579,10.076,5.158,10.27,5.137a5.024,5.024,0,0,0,1.239-.311,4.829,4.829,0,0,0,1.214-.688l.018.016.849-.831A1.552,1.552,0,0,0,18.821,15.587Z" transform="translate(0 -0.394)" fill="#ce0505"/>
    </g>
  </g>
</svg>
