<svg id="close-envelope" xmlns="http://www.w3.org/2000/svg" width="19.061" height="13.615" viewBox="0 0 19.061 13.615">
  <g id="Group_462" data-name="Group 462">
    <path id="Path_795" data-name="Path 795" d="M9.416,9.548,7.058,7.484.316,13.264a1.38,1.38,0,0,0,.941.369H17.576a1.37,1.37,0,0,0,.937-.369l-6.738-5.78Z" transform="translate(0.114 -0.018)" fill="#ce0505"/>
    <path id="Path_796" data-name="Path 796" d="M18.516,2.369A1.371,1.371,0,0,0,17.575,2H1.256a1.366,1.366,0,0,0-.938.372l9.1,7.8Z" transform="translate(0.115 -2)" fill="#ce0505"/>
    <path id="Path_797" data-name="Path 797" d="M0,2.878V14.189L6.58,8.6Z" transform="translate(0 -1.683)" fill="#ce0505"/>
    <path id="Path_798" data-name="Path 798" d="M9.167,8.6l6.58,5.592V2.875Z" transform="translate(3.314 -1.684)" fill="#ce0505"/>
  </g>
</svg>
