<svg id="whatsapp-logo" xmlns="http://www.w3.org/2000/svg" width="19" height="19" viewBox="0 0 19 19">
  <path id="WhatsApp" d="M19,9.255a9.343,9.343,0,0,1-13.836,8.1L0,19l1.684-4.966A9.158,9.158,0,0,1,.345,9.255,9.328,9.328,0,0,1,19,9.255ZM9.673,1.474A7.82,7.82,0,0,0,1.831,9.255a7.7,7.7,0,0,0,1.494,4.562l-.98,2.89,3.014-.958A7.85,7.85,0,0,0,17.515,9.256,7.821,7.821,0,0,0,9.673,1.474Zm4.71,9.913c-.058-.094-.21-.151-.438-.265s-1.353-.662-1.562-.738-.362-.114-.515.113-.59.738-.724.889-.267.171-.5.057A6.258,6.258,0,0,1,8.81,10.318,6.84,6.84,0,0,1,7.538,8.747c-.133-.227-.014-.35.1-.463s.229-.265.343-.4a1.521,1.521,0,0,0,.228-.379.413.413,0,0,0-.019-.4C8.133,7,7.676,5.882,7.485,5.427s-.381-.378-.514-.378-.286-.019-.438-.019a.844.844,0,0,0-.61.284,2.537,2.537,0,0,0-.8,1.892,4.39,4.39,0,0,0,.934,2.346,9.346,9.346,0,0,0,3.906,3.425c2.325.908,2.325.605,2.744.567a2.313,2.313,0,0,0,1.544-1.078A1.891,1.891,0,0,0,14.383,11.387Z" fill="#ce0505"/>
</svg>
